# xmcd CD database file
#
# Track frame offsets:
#	150
#	14734
#	23945
#	39293
#	50335
#	65223
#	79262
#	92349
#	102566
#	114693
#	127122
#	138307
#	148578
#	160023
#	171535
#	184730
#
# Disc length: 2633 seconds
#
# Revision: 0
# Processed by: cddbd v1.5.1PL0 Copyright (c) Steve Scherf et al.
# Submitted via: CDex 1.51
#
DISCID=e60a4710
DTITLE=Various Artist - Country Classics - Country Songs 1/3
DYEAR=1900
DGENRE=Country
TTITLE0=John Denver - Take me Home Country Roads
TTITLE1=Lorretta Lynn - Your Squaw is on the Warpath
TTITLE2=Kenny Rogers - For the good times
TTITLE3=George Jones - Where we never grow Old
TTITLE4=Jerry Lee Lewis - Gold, gold Heart
TTITLE5=John Denver - Annie's Song
TTITLE6=Faron Young - Swinging Doors
TTITLE7=Lorretta Lynn - You're locking at Country
TTITLE8=Willie Nelson - Seven Spanish Angels
TTITLE9=Don Williams - Comming Apart
TTITLE10=Jim Reeves - AM I loosing you
TTITLE11=Patsy Cline - Pick me up on your Way
TTITLE12=Dolly Parton - Letter to Heaven
TTITLE13=Charlie Pride - Shutters and Boards
TTITLE14=Don Williams - Where do I go from here
TTITLE15=Johnny Cash - Ring of Fire
EXTD=
EXTT0=
EXTT1=
EXTT2=
EXTT3=
EXTT4=
EXTT5=
EXTT6=
EXTT7=
EXTT8=
EXTT9=
EXTT10=
EXTT11=
EXTT12=
EXTT13=
EXTT14=
EXTT15=
PLAYORDER=
